# This file uses centimeters as units for non-parametric coordinates.

mtllib Mushroom.mtl
g default
v -0.292198 -0.191668 0.292198
v 0.292198 -0.191668 0.292198
v -0.347331 0.706993 0.347331
v 0.347331 0.706993 0.347331
v -0.347331 0.706993 -0.347331
v 0.347331 0.706993 -0.347331
v -0.292198 -0.191668 -0.292198
v 0.292198 -0.191668 -0.292198
v -0.328278 2.305517 0.328278
v 0.328278 2.305517 0.328278
v 0.328278 2.305517 -0.328278
v -0.328278 2.305517 -0.328278
v 1.114850 1.637737 1.033667
v -1.114850 1.637737 1.033667
v -1.114850 1.637737 -1.114851
v 1.114850 1.637737 -1.114851
v 1.252305 1.015333 1.151178
v -1.232232 1.015333 1.151178
v -1.240469 1.009498 -1.234839
v 1.321114 1.015333 -1.246912
v -0.773591 2.044154 0.773592
v -0.773591 2.044154 -0.773592
v 0.773591 2.044154 -0.773592
v 0.773591 2.044154 0.773592
v -0.958566 0.849011 0.958566
v -0.958566 0.849011 -0.958566
v 0.958566 0.849011 -0.958566
v 0.958566 0.849011 0.958566
v 0.376262 -0.009626 0.376262
v -0.376262 -0.009626 0.376262
v -0.376262 -0.009626 -0.376262
v 0.376262 -0.009626 -0.376262
v 0.416577 0.381481 0.416577
v -0.416577 0.381481 0.416577
v -0.416577 0.381481 -0.416577
v 0.416577 0.381481 -0.416577
v 0.024197 2.305517 -0.328278
v 0.057021 2.044154 -0.773592
v 0.090750 1.637737 -1.244790
v 0.126259 1.015333 -1.575567
v 0.070655 0.849011 -0.958566
v 0.025601 0.706993 -0.347331
v 0.030706 0.381481 -0.416577
v 0.027734 -0.009626 -0.376262
v 0.021538 -0.191668 -0.292198
v 0.021538 -0.191668 0.292198
v 0.027734 -0.009626 0.376262
v 0.030706 0.381481 0.416577
v 0.025601 0.706993 0.347331
v 0.070655 0.849011 0.958566
v 0.126259 1.015333 1.477992
v 0.090750 1.637737 1.146657
v 0.057021 2.044154 0.773592
v 0.024197 2.305517 0.328278
v 0.328278 2.305517 0.004104
v 0.024197 2.305517 0.004104
v -0.328278 2.305517 0.004104
v -0.773591 2.044154 0.009671
v -1.231190 1.637737 -0.024876
v -1.579815 1.012452 -0.020960
v -0.958566 0.849011 0.011984
v -0.347331 0.706993 0.004342
v -0.416577 0.381481 0.005208
v -0.376262 -0.009626 0.004704
v -0.292198 -0.191668 0.003653
v 0.021538 -0.191668 0.003653
v 0.292198 -0.191668 0.003653
v 0.376262 -0.009626 0.004704
v 0.416577 0.381481 0.005208
v 0.347331 0.706993 0.004342
v 0.958566 0.849011 0.011984
v 1.629795 1.015333 -0.028544
v 1.231190 1.637737 -0.024876
v 0.773591 2.044154 0.009671
vt 0.609422 0.703141
vt 0.594851 0.844201
vt 0.594469 0.649638
vt 0.631981 0.685719
vt 0.337542 0.256567
vt 0.338966 0.300626
vt 0.297857 0.301425
vt 0.297310 0.256487
vt 0.684423 0.766971
vt 0.700490 0.815782
vt 0.672988 0.822155
vt 0.659372 0.779352
vt 0.620975 0.790970
vt 0.633403 0.833288
vt 0.605432 0.880463
vt 0.511898 0.613185
vt 0.525769 0.588911
vt 0.565919 0.614774
vt 0.655397 0.727171
vt 0.708389 0.625885
vt 0.740168 0.364591
vt 0.654205 0.350782
vt 0.688880 0.213956
vt 0.730360 0.407332
vt 0.775840 0.418289
vt 0.754864 0.502513
vt 0.629180 0.469457
vt 0.793920 0.772740
vt 0.768678 0.721040
vt 0.945376 0.273118
vt 0.915463 0.412010
vt 0.740874 0.671517
vt 0.815926 0.240858
vt 0.443155 0.137843
vt 0.483826 0.307879
vt 0.407397 0.303728
vt 0.395515 0.196237
vt 0.292934 0.104048
vt 0.297467 0.188209
vt 0.102663 0.313071
vt 0.139804 0.141421
vt 0.196750 0.198155
vt 0.187954 0.307328
vt 0.447768 0.449539
vt 0.298482 0.493776
vt 0.300226 0.408539
vt 0.398834 0.395150
vt 0.667710 0.166740
vt 0.586845 0.314682
vt 0.840014 0.154804
vt 1.000000 0.439666
vt 0.995168 0.241587
vt 0.589597 0.506437
vt 0.297433 0.595342
vt 0.256097 0.257732
vt 0.255689 0.302067
vt 0.298298 0.340181
vt 0.338845 0.338485
vt 0.635701 0.610458
vt 0.672368 0.654145
vt 0.703251 0.696289
vt 0.729171 0.743432
vt 0.753967 0.796326
vt 0.558197 0.542535
vt 0.599473 0.577112
vt 0.197752 0.400879
vt 0.256661 0.340265
vt 0.141374 0.457859
vt 0.914988 0.591905
vt 0.885524 0.530728
vt 0.822582 0.429138
vt 0.773652 0.844805
vt 0.717272 0.860859
vt 0.684912 0.858371
vt 0.738361 0.596582
vt 0.504172 0.516003
vt 0.292945 0.000000
vt 0.080491 0.083201
vt 0.578317 0.341214
vt 0.500820 0.079887
vt 0.000000 0.319795
vt 0.086934 0.525130
vt 0.590577 0.509492
vt 0.813070 0.815055
vt 0.797459 0.325563
vt 0.844104 0.336558
vt 0.668954 0.580086
vt 0.630812 0.544397
vt 0.832697 0.386302
vt 0.751901 0.315094
vt 0.512427 0.508205
vt 0.482745 0.558196
vt 0.551068 0.477555
vt 0.644236 0.869489
vt 0.547905 0.636571
vt 0.632198 0.741935
vt 0.582650 0.802026
vt 0.575024 0.669125
vt 0.476963 0.589238
vn 0.000000 -0.419243 0.907874
vn 0.000000 -0.419243 0.907874
vn 0.000000 -0.199923 0.979812
vn 0.000000 -0.177650 0.984094
vn 0.000000 1.000000 0.000000
vn 0.000000 1.000000 0.000000
vn 0.000000 1.000000 0.000000
vn 0.000000 1.000000 0.000000
vn 0.000000 -0.177650 -0.984094
vn 0.000000 -0.199923 -0.979812
vn 0.000000 -0.419243 -0.907874
vn 0.000000 -0.419243 -0.907874
vn 0.000000 -1.000000 0.000000
vn 0.000000 -1.000000 0.000000
vn 0.000000 -1.000000 0.000000
vn 0.000000 -1.000000 0.000000
vn 0.907874 -0.419243 0.000000
vn 0.907874 -0.419243 0.000000
vn 0.979787 -0.200043 0.000000
vn 0.984094 -0.177650 0.000000
vn -0.907874 -0.419243 0.000000
vn -0.907874 -0.419243 0.000000
vn -0.984094 -0.177650 0.000000
vn -0.979787 -0.200043 0.000000
vn 0.000000 -0.896838 0.442360
vn 0.000000 -0.864475 0.502676
vn -0.002044 -0.946944 0.321394
vn -0.043096 -0.929005 0.367551
vn 0.442360 -0.896838 0.000000
vn 0.503295 -0.864115 0.000000
vn 0.273421 -0.961886 0.003944
vn 0.297944 -0.953561 0.044156
vn 0.000000 -0.864475 -0.502676
vn 0.000000 -0.896838 -0.442360
vn -0.035816 -0.949586 -0.311454
vn -0.001124 -0.958123 -0.286354
vn -0.503295 -0.864115 0.000000
vn -0.442360 -0.896838 0.000000
vn -0.311734 -0.949166 0.043666
vn -0.285255 -0.958449 0.002292
vn -0.129785 0.422419 0.897061
vn -0.002547 0.459783 0.888028
vn -0.001166 0.723595 0.690223
vn -0.035663 0.674886 0.737060
vn -0.859300 0.511471 -0.000523
vn -0.864670 0.480592 0.146210
vn -0.672558 0.739123 0.036924
vn -0.640372 0.768064 0.001047
vn -0.004597 0.510430 -0.859907
vn -0.135713 0.463764 -0.875503
vn -0.037078 0.743143 -0.668105
vn -0.001097 0.771294 -0.636478
vn 0.848387 0.507206 0.151600
vn 0.837940 0.545700 0.008276
vn 0.640372 0.768064 0.001047
vn 0.672558 0.739122 0.036924
vn -0.164406 0.007913 0.986361
vn 0.005653 -0.110015 0.993914
vn -0.979949 -0.199246 0.000625
vn -0.964884 -0.177912 0.193252
vn 0.003622 -0.202652 -0.979244
vn -0.172444 -0.117836 -0.977946
vn 0.961384 -0.184338 0.204356
vn 0.980548 -0.195991 0.010624
vn -0.506177 0.862430 0.000000
vn -0.506177 0.862430 0.000000
vn 0.000000 0.862430 -0.506176
vn 0.000000 0.862430 -0.506176
vn 0.506177 0.862430 0.000000
vn 0.506177 0.862430 0.000000
vn 0.000000 0.862430 0.506176
vn 0.000000 0.862431 0.506176
vn 0.000000 0.037413 0.999300
vn 0.000000 0.031807 0.999494
vn -0.999494 0.031807 0.000000
vn -0.999299 0.037440 0.000000
vn 0.000000 0.031807 -0.999494
vn 0.000000 0.037413 -0.999300
vn 0.999299 0.037440 0.000000
vn 0.999494 0.031807 0.000000
vn 0.043104 0.745823 -0.664748
vn 0.000000 0.862430 -0.506176
vn 0.152328 0.479695 -0.864112
vn 0.194021 -0.108403 -0.974990
vn 0.041350 -0.951357 -0.305303
vn 0.000000 -0.896838 -0.442360
vn 0.000000 0.031807 -0.999494
vn 0.000000 -0.177650 -0.984094
vn 0.000000 -0.419243 -0.907874
vn 0.000000 -1.000000 0.000000
vn 0.000000 -1.000000 0.000000
vn 0.000000 -0.419243 0.907874
vn 0.000000 -0.177650 0.984094
vn 0.000000 0.031807 0.999494
vn 0.000000 -0.896838 0.442360
vn 0.049806 -0.932124 0.358698
vn 0.194712 0.003571 0.980854
vn 0.152732 0.432802 0.888457
vn 0.041479 0.678207 0.733699
vn 0.000000 0.862430 0.506176
vn 0.000000 1.000000 0.000000
vn 0.000000 1.000000 0.000000
vn 0.000000 1.000000 0.000000
vn 0.000000 1.000000 0.000000
vn 0.000000 1.000000 0.000000
vn -0.670998 0.740578 -0.036125
vn -0.506177 0.862430 0.000000
vn -0.868077 0.475350 -0.143124
vn -0.974160 -0.128235 -0.185924
vn -0.302560 -0.952348 -0.038620
vn -0.442360 -0.896838 0.000000
vn -0.999494 0.031807 0.000000
vn -0.984094 -0.177650 0.000000
vn -0.907874 -0.419244 0.000000
vn 0.000000 -1.000000 0.000000
vn 0.000000 -1.000000 0.000000
vn 0.000000 -1.000000 0.000000
vn 0.907874 -0.419244 0.000000
vn 0.984094 -0.177650 0.000000
vn 0.999494 0.031807 0.000000
vn 0.442360 -0.896838 0.000000
vn 0.280942 -0.959145 -0.033363
vn 0.976645 -0.127852 -0.172680
vn 0.838818 0.528848 -0.129244
vn 0.670998 0.740578 -0.036125
vn 0.506177 0.862430 0.000000
s 1
g pCube1
usemtl initialShadingGroup
f 1/1/1 46/98/2 47/3/3 30/4/4
s 2
f 9/5/5 54/6/6 56/7/7 57/8/8
s 3
f 31/9/9 44/10/10 45/11/11 7/12/12
s 4
f 65/13/13 66/14/14 46/2/15 1/97/16
s 5
f 2/95/17 67/16/18 68/17/19 29/18/20
s 6
f 65/96/21 1/1/22 30/4/23 64/19/24
s 1
f 3/90/25 49/21/26 50/22/27 25/23/28
s 5
f 4/24/29 70/25/30 71/26/31 28/27/32
s 3
f 42/89/33 5/86/34 26/30/35 41/31/36
s 6
f 62/85/37 3/90/38 25/23/39 61/33/40
s 1
f 14/34/41 52/35/42 53/36/43 21/37/44
s 6
f 59/38/45 14/34/46 21/37/47 58/39/48
s 3
f 39/40/49 15/41/50 22/42/51 38/43/52
s 5
f 13/44/53 73/45/54 74/46/55 24/47/56
s 1
f 18/80/57 51/49/58 52/35/42 14/34/41
s 6
f 60/77/59 18/80/60 14/34/46 59/38/45
s 3
f 40/81/61 19/78/62 15/41/50 39/40/49
s 5
f 17/76/63 72/54/64 73/45/54 13/44/53
s 6
f 58/39/48 21/37/47 9/5/65 57/8/66
s 3
f 38/43/52 22/42/51 12/55/67 37/56/68
s 5
f 24/47/56 74/46/55 55/57/69 10/58/70
s 1
f 21/37/44 53/36/43 54/6/71 9/5/72
s 6
f 61/33/40 25/23/39 18/48/60 60/50/59
s 3
f 41/31/36 26/30/35 19/52/62 40/51/61
s 5
f 28/27/32 71/26/31 72/75/64 17/53/63
s 1
f 25/23/28 50/22/27 51/79/58 18/48/57
f 30/4/4 47/3/3 48/59/73 34/60/74
s 6
f 64/19/24 30/4/23 34/60/75 63/61/76
s 3
f 35/62/77 43/63/78 44/10/10 31/9/9
s 5
f 29/18/20 68/17/19 69/64/79 33/65/80
s 1
f 34/60/74 48/59/73 49/87/26 3/20/25
s 6
f 63/61/76 34/60/75 3/20/38 62/32/37
s 3
f 5/29/34 42/28/33 43/63/78 35/62/77
s 5
f 33/65/80 69/64/79 70/83/30 4/88/29
s 3
f 23/66/81 38/43/52 37/56/68 11/67/82
f 16/68/83 39/40/49 38/43/52 23/66/81
f 20/82/84 40/81/61 39/40/49 16/68/83
f 27/70/85 41/31/36 40/51/61 20/69/84
f 6/71/86 42/89/33 41/31/36 27/70/85
f 43/63/78 42/28/33 6/84/86 36/72/87
f 44/10/10 43/63/78 36/72/87 32/73/88
f 45/11/11 44/10/10 32/73/88 8/74/89
s 4
f 46/2/15 66/14/14 67/94/90 2/15/91
s 1
f 47/3/3 46/98/2 2/95/92 29/18/93
f 48/59/73 47/3/3 29/18/93 33/65/94
f 49/87/26 48/59/73 33/65/94 4/88/95
f 50/22/27 49/21/26 4/24/95 28/27/96
f 51/79/58 50/22/27 28/27/96 17/53/97
f 52/35/42 51/49/58 17/76/97 13/44/98
f 53/36/43 52/35/42 13/44/98 24/47/99
f 54/6/71 53/36/43 24/47/99 10/58/100
s 2
f 56/7/7 54/6/6 10/58/101 55/57/102
f 37/56/103 56/7/7 55/57/102 11/67/104
f 57/8/8 56/7/7 37/56/103 12/55/105
s 6
f 22/42/106 58/39/48 57/8/66 12/55/107
f 15/41/108 59/38/45 58/39/48 22/42/106
f 19/78/109 60/77/59 59/38/45 15/41/108
f 26/30/110 61/33/40 60/50/59 19/52/109
f 5/86/111 62/85/37 61/33/40 26/30/110
f 35/62/112 63/61/76 62/32/37 5/29/111
f 31/9/113 64/19/24 63/61/76 35/62/112
f 7/12/114 65/96/21 64/19/24 31/9/113
s 4
f 7/12/115 45/11/116 66/14/14 65/13/13
f 67/94/90 66/14/14 45/11/116 8/74/117
s 5
f 68/17/19 67/16/18 8/99/118 32/92/119
f 69/64/79 68/17/19 32/92/119 36/91/120
f 70/83/30 69/64/79 36/91/120 6/93/121
f 71/26/31 70/25/30 6/71/121 27/70/122
f 72/75/64 71/26/31 27/70/122 20/69/123
f 73/45/54 72/54/64 20/82/123 16/68/124
f 74/46/55 73/45/54 16/68/124 23/66/125
f 55/57/69 74/46/55 23/66/125 11/67/126
